<mxfile host="app.diagrams.net" modified="2023-11-18T04:42:56.916Z" agent="Mozilla/5.0 (Windows NT 10.0; Win64; x64) AppleWebKit/537.36 (KHTML, like Gecko) Chrome/119.0.0.0 Safari/537.36" version="22.1.3" etag="Bm75rAq-yJnlXh0FP1Ny" type="github">
  <diagram name="第 1 页" id="UwfAGgOHjW74b4nCkUQd">
    <mxGraphModel>
      <root>
        <mxCell id="0" />
        <mxCell id="1" parent="0" />
      </root>
    </mxGraphModel>
  </diagram>
</mxfile>
